<?xml version="1.0" encoding="UTF-8" standalone="no"?>
<!-- Created with Inkscape (http://www.inkscape.org/) -->

<svg
   width="256"
   height="256"
   viewBox="0 0 67.733333 67.733334"
   version="1.1"
   id="svg5"
   sodipodi:docname="songdir.svg"
   inkscape:version="1.3 (0e150ed6c4, 2023-07-21)"
   inkscape:export-filename="logo.png"
   inkscape:export-xdpi="96"
   inkscape:export-ydpi="96"
   xmlns:inkscape="http://www.inkscape.org/namespaces/inkscape"
   xmlns:sodipodi="http://sodipodi.sourceforge.net/DTD/sodipodi-0.dtd"
   xmlns="http://www.w3.org/2000/svg"
   xmlns:svg="http://www.w3.org/2000/svg">
  <sodipodi:namedview
     id="namedview7"
     pagecolor="#ffffff"
     bordercolor="#cccccc"
     borderopacity="1"
     inkscape:showpageshadow="0"
     inkscape:pageopacity="0"
     inkscape:pagecheckerboard="0"
     inkscape:deskcolor="#b7b7b7"
     inkscape:document-units="px"
     showgrid="false"
     showguides="true"
     inkscape:zoom="1.4142136"
     inkscape:cx="106.06602"
     inkscape:cy="188.44396"
     inkscape:window-width="1411"
     inkscape:window-height="853"
     inkscape:window-x="29"
     inkscape:window-y="24"
     inkscape:window-maximized="1"
     inkscape:current-layer="layer1"
     inkscape:export-bgcolor="#ffffffff" />
  <defs
     id="defs2" />
  <g
     inkscape:label="Capa 1"
     inkscape:groupmode="layer"
     id="layer1">
    <rect
       style="fill:#ffffff;stroke:none;stroke-width:0.267622;stroke-linecap:round;stroke-linejoin:round;paint-order:stroke fill markers;fill-opacity:1"
       id="rect1"
       width="67.73333"
       height="67.73333"
       x="0"
       y="0" />
    <path
       style="fill:#000000;fill-opacity:1;stroke:#050505;stroke-width:0.168697;stroke-linecap:round;stroke-linejoin:round;stroke-dasharray:none;stroke-opacity:1;paint-order:stroke fill markers"
       d="M 41.133952,55.595748 C 31.997494,54.407888 29.690958,47.262942 29.690958,45.158518 V 23.488533 c 0.121118,-3.54865 -1.223288,-7.756967 -6.659679,-7.804615 -4.617719,-0.04047 -10.047695,0.943141 -10.047695,6.453144 v 19.844399 c -0.318522,2.48556 -4.2889671,2.394582 -4.7321773,0.108838 V 13.737066 c 0.5020628,-2.422416 4.3650923,-2.221766 4.7321773,0 v 1.478641 c 2.249916,-2.196646 5.362466,-3.380602 10.179524,-3.213155 8.703563,0.302549 11.253709,6.810053 11.146352,8.613232 L 34.536814,45.035 c 0.708757,5.415106 5.78669,7.185874 9.888118,7.031272 8.450606,-0.318544 9.444947,-6.962319 10.180877,-10.202499 0.296605,-1.305906 0.501213,-4.530323 0.287476,-4.530323 -0.07749,0 -0.263916,0.208264 -0.414278,0.462806 -0.45366,0.767977 -2.067431,2.402301 -2.992204,3.030301 -1.115673,0.757644 -2.73128,1.400166 -4.333996,1.723618 -1.756087,0.354403 -5.173521,0.241341 -6.887057,-0.227854 -1.386799,-0.379731 -3.29812,-1.281523 -4.341564,-2.048435 l -0.7173,-0.527203 v -2.976841 c 0,-2.83328 0.01224,-2.958838 0.253198,-2.603471 0.740135,1.091439 2.246489,2.471753 3.446071,3.157733 1.410487,0.806591 3.587154,1.367773 5.306943,1.368234 2.194076,5.34e-4 4.816582,-0.930018 6.590447,-2.338626 1.672307,-1.327963 3.09564,-3.56032 3.756221,-5.891257 0.502974,-1.7748 0.503158,-4.958777 4.01e-4,-6.568967 -1.360005,-4.355516 -4.65568,-7.149799 -9.105858,-7.720511 -2.194056,-0.281375 -4.968358,0.230826 -6.698643,1.236729 -2.562293,1.489592 -3.632949,3.580099 -3.630977,3.426791 0.02656,-2.064317 -0.579056,-2.888537 -1.575305,-4.52113 1.173517,-1.021526 1.845438,-1.543073 2.796366,-2.232065 1.315005,-0.952783 3.010702,-1.549686 4.736887,-1.899457 1.567852,-0.317686 5.166945,-0.235639 6.582663,0.15006 2.443158,0.66562 4.191379,1.657996 5.931913,3.367247 0.697752,0.685211 1.29455,1.24584 1.326231,1.24584 0.03165,0 0.07643,-0.968357 0.09946,-2.151904 l 0.0419,-1.05803 c 0.269517,-2.281446 3.88616,-2.360185 4.390809,0 l 0.02631,23.596386 c -0.07042,2.068529 -0.07817,2.697077 -0.403995,4.530324 -1.253236,7.05144 -4.838768,11.637243 -10.380232,13.276054 -1.967462,0.581849 -5.129231,0.772435 -7.563675,0.455924 z"
       id="path2"
       sodipodi:nodetypes="cscsscccccsccsssssssscscscsscssscsssssccccsscc" />
  </g>
</svg>
